Coordinates
version=1
nRows=11
nColumns=40
inDegrees=yes

Units are S.I. units (second, meters, Newtons, ...)
Angles are in degrees.

endheader
time	pelvis_tilt	pelvis_list	pelvis_rotation	pelvis_tx	pelvis_ty	pelvis_tz	hip_flexion_r	hip_adduction_r	hip_rotation_r	knee_angle_r	knee_angle_r_beta	ankle_angle_r	subtalar_angle_r	mtp_angle_r	hip_flexion_l	hip_adduction_l	hip_rotation_l	knee_angle_l	knee_angle_l_beta	ankle_angle_l	subtalar_angle_l	mtp_angle_l	lumbar_extension	lumbar_bending	lumbar_rotation	arm_flex_r	arm_add_r	arm_rot_r	elbow_flex_r	pro_sup_r	wrist_flex_r	wrist_dev_r	arm_flex_l	arm_add_l	arm_rot_l	elbow_flex_l	pro_sup_l	wrist_flex_l	wrist_dev_l
      8.13000000	     -2.98100115	     -2.54127223	     -2.91011597	      0.83727369	      0.92577055	      0.42844557	     27.59465564	     -2.52936575	    -14.24664943	     17.73095674	     17.73095674	      2.65386180	     -0.08206400	      6.99849391	     -1.35239011	     -0.76504008	    -14.11407008	     10.68058986	     10.68058986	     17.00128024	     -2.50336838	     -8.07193454	     -8.51390574	      2.77222201	      1.10634237	    -17.54560371	    -15.92597271	     -8.90780931	     23.94163189	     47.35827776	      0.00000000	      0.00000000	     13.45284133	    -12.73986683	    -10.40776861	     74.04074214	     47.58045981	      0.00000000	      0.00000000
      8.14200000	     -3.00287642	     -2.40594586	     -3.04621531	      0.83824799	      0.92412551	      0.43006090	     27.69273577	     -2.36464947	    -14.40678252	     17.47098438	     17.47098438	      2.27933020	      0.06764704	      7.18998959	     -1.92814523	     -0.67844129	    -14.15059056	     10.68761018	     10.68761018	     17.46955319	     -2.56884267	     -8.22791247	     -8.35040487	      2.59763532	      0.95253704	    -18.07284246	    -15.92186004	     -8.95638642	     23.77198573	     47.36340558	      0.00000000	      0.00000000	     13.34777247	    -12.88677505	    -10.49700793	     74.02496146	     47.58631175	      0.00000000	      0.00000000
      8.15400000	     -2.88427602	     -2.54639993	     -3.14127682	      0.83970144	      0.92317874	      0.43180917	     26.96051700	     -1.87461746	    -14.99205532	     16.39315430	     16.39315430	      1.79004731	      0.89858746	      7.49377052	     -2.85158317	     -0.88016952	    -14.34645276	     10.40486540	     10.40486540	     17.87322252	     -2.14756060	     -8.08743201	     -8.37888906	      2.81157896	      0.96782812	    -18.78015673	    -15.86232188	     -9.27493479	     23.72626779	     47.37613469	      0.00000000	      0.00000000	     13.04473184	    -12.94671359	    -10.80060023	     74.00609433	     47.60904250	      0.00000000	      0.00000000
      8.16600000	     -2.89764583	     -2.55909776	     -3.18577967	      0.84108652	      0.92176147	      0.43368749	     26.83945280	     -1.62746395	    -15.11345471	     16.50022160	     16.50022160	      1.57487453	      0.93374523	      7.45046253	     -3.42989391	     -1.00577150	    -14.34128338	     10.47735609	     10.47735609	     18.26036501	     -2.08407341	     -8.08746688	     -8.19354961	      2.80193278	      0.88574841	    -19.26380493	    -15.72326382	     -9.38192973	     23.61890928	     47.38162092	      0.00000000	      0.00000000	     12.70282107	    -13.11143294	    -10.95371680	     73.82410301	     47.61570540	      0.00000000	      0.00000000
      8.17800000	     -2.99472190	     -2.51933564	     -3.21319262	      0.84245147	      0.92039419	      0.43553134	     26.69614720	     -1.45190615	    -15.14066239	     16.63712393	     16.63712393	      1.38030199	      0.94028509	      7.46894826	     -3.89520161	     -1.07363480	    -14.28784101	     10.55875416	     10.55875416	     18.53533339	     -2.11169807	     -8.15712960	     -7.90274086	      2.74405903	      0.82933316	    -19.37179050	    -15.63982694	     -9.39606395	     23.59517588	     47.38204020	      0.00000000	      0.00000000	     12.60203096	    -13.12510036	    -10.97318065	     73.76645497	     47.61560720	      0.00000000	      0.00000000
      8.19000000	     -2.90430295	     -2.72540483	     -3.13566933	      0.84424389	      0.91927675	      0.43754643	     26.38213153	     -1.11202245	    -15.19650639	     17.18867546	     17.18867546	      1.53405961	      0.67341581	      7.12396476	     -4.54866223	     -1.44928626	    -14.16395552	     10.75596245	     10.75596245	     19.00455942	     -2.10908390	     -8.12040093	     -7.85391871	      3.04861872	      0.71219782	    -19.70220132	    -15.28599904	     -9.44266422	     23.51025154	     47.38346452	      0.00000000	      0.00000000	     11.91581472	    -13.20235971	    -11.06313037	     73.29326273	     47.61009222	      0.00000000	      0.00000000
      8.20200000	     -2.88810550	     -2.82840352	     -3.03075418	      0.84596230	      0.91813669	      0.43971914	     26.07357424	     -0.75581773	    -14.61628171	     17.55148793	     17.55148793	      0.03058900	     -0.99831348	      2.12287184	     -4.59732514	     -2.03458538	    -15.11620723	     12.21042802	     12.21042802	     21.46410140	      0.03991484	     -4.32064269	     -7.63822035	      3.23810182	      0.63936689	    -19.57975131	    -15.00905997	    -10.95586987	     23.38556770	     47.46872589	      0.00000000	      0.00000000	     12.30448617	    -12.94509025	    -11.67885459	     70.77837309	     47.62584548	      0.00000000	      0.00000000
      8.21400000	     -2.81567989	     -2.97087122	     -2.93861502	      0.84785166	      0.91745274	      0.44184373	     25.68443224	     -0.50773730	    -14.53512982	     18.18958550	     18.18958550	      0.50848834	     -1.26748419	      1.76616825	     -5.13432663	     -2.37288107	    -14.89947295	     12.55375637	     12.55375637	     21.65916139	     -0.11268916	     -4.33829501	     -7.55133214	      3.42048955	      0.60053792	    -19.46042146	    -14.63451771	    -10.96386524	     23.42716900	     47.46556005	      0.00000000	      0.00000000	     11.71837986	    -12.86828329	    -11.59476035	     70.43008419	     47.61043654	      0.00000000	      0.00000000
      8.22600000	     -2.82923953	     -3.00648404	     -2.73689462	      0.84941767	      0.91664536	      0.44388433	     25.74198629	     -0.44683085	    -14.13613159	     19.48267309	     19.48267309	      0.93804611	     -2.39079112	      0.89902805	     -5.16033576	     -2.71818573	    -14.57005904	     13.63980539	     13.63980539	     22.00477315	     -0.58354696	     -4.12277309	     -7.39487761	      3.48825989	      0.14724947	    -18.85448106	    -14.56240499	    -11.11412766	     23.49975540	     47.47326061	      0.00000000	      0.00000000	     11.31954435	    -13.19656248	    -11.46223410	     69.20520754	     47.57950994	      0.00000000	      0.00000000
      8.23800000	     -2.87188093	     -3.12470797	     -2.53974463	      0.85107630	      0.91624966	      0.44606184	     25.58198493	     -0.23078304	    -13.72445929	     20.33423827	     20.33423827	      1.34349658	     -3.42983214	      0.02654333	     -5.06501982	     -3.18532601	    -14.18106200	     14.89848554	     14.89848554	     22.28507553	     -1.11830750	     -3.78653457	     -7.17165819	      3.67909271	     -0.06988314	    -18.22009511	    -14.26645371	    -11.21194693	     23.38593679	     47.48224081	      0.00000000	      0.00000000	     10.96854184	    -13.21374734	    -11.29690112	     67.59796516	     47.54010276	      0.00000000	      0.00000000
      8.25000000	     -2.81052882	     -3.26571622	     -2.34951103	      0.85276785	      0.91642240	      0.44834559	     25.16042998	      0.05647884	    -13.29603315	     20.89028213	     20.89028213	      1.55341664	     -4.57339056	     -1.38561083	     -4.98763061	     -3.69484240	    -13.78401046	     16.33638436	     16.33638436	     22.58229035	     -1.67895795	     -2.97740378	     -7.04038175	      3.90111710	      0.16987542	    -17.48243790	    -13.86476895	    -11.49571569	     22.63298956	     47.51670471	      0.00000000	      0.00000000	     11.29120519	    -12.90347993	    -10.93214297	     64.61822726	     47.46976907	      0.00000000	      0.00000000
